<svg width="30" height="30" viewBox="0 0 30 30" fill="none" xmlns="http://www.w3.org/2000/svg">
<rect width="30" height="30" rx="2" fill="white"/>
<path d="M23.3847 11.2774C23.1902 10.5544 22.6203 9.98455 21.8974 9.78989C20.5769 9.42857 15.2947 9.42857 15.2947 9.42857C15.2947 9.42857 10.0127 9.42857 8.69221 9.77619C7.98328 9.97065 7.39939 10.5545 7.20493 11.2774C6.85742 12.5978 6.85742 15.3362 6.85742 15.3362C6.85742 15.3362 6.85742 18.0883 7.20493 19.3949C7.3996 20.1178 7.96938 20.6877 8.69231 20.8823C10.0266 21.2437 15.2949 21.2437 15.2949 21.2437C15.2949 21.2437 20.5769 21.2437 21.8974 20.8961C22.6204 20.7016 23.1902 20.1317 23.3849 19.4089C23.7323 18.0883 23.7323 15.3501 23.7323 15.3501C23.7323 15.3501 23.7462 12.5978 23.3847 11.2774ZM13.613 17.866V12.8064L18.0054 15.3362L13.613 17.866Z" fill="#7481FF"/>
</svg>
